<svg width="245" height="51" viewBox="0 0 245 51" fill="none" xmlns="http://www.w3.org/2000/svg">
<path fill-rule="evenodd" clip-rule="evenodd" d="M10.8798 30.47L8.4998 34.95V50H0.799805V1H8.4998V22.35L18.5798 1H26.2798L15.5698 22.84L26.2798 50H18.3698L10.8798 30.47ZM37.1498 38.73C37.1498 40.5033 37.5115 41.7517 38.2348 42.475C38.9581 43.1983 39.9265 43.56 41.1398 43.56C42.3531 43.56 43.3215 43.1983 44.0448 42.475C44.7681 41.7517 45.1298 40.5033 45.1298 38.73V12.27C45.1298 10.4967 44.7681 9.24834 44.0448 8.525C43.3215 7.80167 42.3531 7.44 41.1398 7.44C39.9265 7.44 38.9581 7.80167 38.2348 8.525C37.5115 9.24834 37.1498 10.4967 37.1498 12.27V38.73ZM29.4498 12.76C29.4498 8.79332 30.4531 5.74835 32.4598 3.625C34.4665 1.50166 37.3598 0.440002 41.1398 0.440002C44.9198 0.440002 47.8131 1.50166 49.8198 3.625C51.8265 5.74835 52.8298 8.79332 52.8298 12.76V38.24C52.8298 42.2067 51.8265 45.2517 49.8198 47.375C47.8131 49.4983 44.9198 50.56 41.1398 50.56C37.3598 50.56 34.4665 49.4983 32.4598 47.375C30.4531 45.2517 29.4498 42.2067 29.4498 38.24V12.76ZM65.4498 14.51V50H58.5198V1H68.1798L76.0898 30.33V1H82.9498V50H75.0398L65.4498 14.51ZM88.2898 12.76C88.2898 8.79332 89.2348 5.74835 91.1248 3.625C93.0148 1.50166 95.8498 0.440002 99.6298 0.440002C103.41 0.440002 106.245 1.50166 108.135 3.625C110.025 5.74835 110.97 8.79332 110.97 12.76V14.3H103.69V12.27C103.69 10.4967 103.351 9.24834 102.675 8.525C101.998 7.80167 101.053 7.44 99.8398 7.44C98.6265 7.44 97.6815 7.80167 97.0048 8.525C96.3281 9.24834 95.9898 10.4967 95.9898 12.27C95.9898 13.95 96.3631 15.4317 97.1098 16.715C97.8565 17.9983 98.7898 19.2117 99.9098 20.355C101.03 21.4983 102.231 22.6417 103.515 23.785C104.798 24.9283 106 26.1767 107.12 27.53C108.24 28.8833 109.173 30.4233 109.92 32.15C110.666 33.8767 111.04 35.9067 111.04 38.24C111.04 42.2067 110.071 45.2517 108.135 47.375C106.198 49.4983 103.34 50.56 99.5598 50.56C95.7798 50.56 92.9215 49.4983 90.9848 47.375C89.0481 45.2517 88.0798 42.2067 88.0798 38.24V35.23H95.3598V38.73C95.3598 40.5033 95.7215 41.74 96.4448 42.44C97.1681 43.14 98.1365 43.49 99.3498 43.49C100.563 43.49 101.531 43.14 102.255 42.44C102.978 41.74 103.34 40.5033 103.34 38.73C103.34 37.05 102.966 35.5683 102.22 34.285C101.473 33.0017 100.54 31.7883 99.4198 30.645C98.2998 29.5017 97.0981 28.3583 95.8148 27.215C94.5315 26.0717 93.3298 24.8233 92.2098 23.47C91.0898 22.1167 90.1565 20.5767 89.4098 18.85C88.6631 17.1233 88.2898 15.0933 88.2898 12.76ZM114 1H137.8V8H129.75V50H122.05V8H114V1ZM158.05 50C157.956 49.6733 157.863 49.37 157.77 49.09C157.676 48.81 157.595 48.46 157.525 48.04C157.455 47.62 157.408 47.0833 157.385 46.43C157.361 45.7767 157.35 44.96 157.35 43.98V36.28C157.35 33.9933 156.953 32.3833 156.16 31.45C155.366 30.5167 154.083 30.05 152.31 30.05H149.65V50H141.95V1H153.57C157.583 1 160.488 1.93333 162.285 3.8C164.081 5.66668 164.98 8.48998 164.98 12.27V16.12C164.98 21.16 163.3 24.4733 159.94 26.06C161.9 26.8533 163.241 28.1483 163.965 29.945C164.688 31.7417 165.05 33.9233 165.05 36.49V44.05C165.05 45.2633 165.096 46.325 165.19 47.235C165.283 48.145 165.516 49.0667 165.89 50H158.05ZM149.65 8V23.05H152.66C154.106 23.05 155.238 22.6767 156.055 21.93C156.871 21.1833 157.28 19.83 157.28 17.87V13.04C157.28 11.2667 156.965 9.98334 156.335 9.19C155.705 8.39667 154.713 8 153.36 8H149.65ZM178.23 1V38.8C178.23 40.5733 178.591 41.81 179.315 42.51C180.038 43.21 181.006 43.56 182.22 43.56C183.433 43.56 184.401 43.21 185.125 42.51C185.848 41.81 186.21 40.5733 186.21 38.8V1H193.49V38.31C193.49 42.2767 192.521 45.3217 190.585 47.445C188.648 49.5683 185.79 50.63 182.01 50.63C178.23 50.63 175.371 49.5683 173.435 47.445C171.498 45.3217 170.53 42.2767 170.53 38.31V1H178.23ZM220.57 1H244.37V8H236.32V50H228.62V8H220.57V1Z" fill="#171819"/>
</svg>
